<svg width="207" height="25" viewBox="0 0 207 25" fill="none" xmlns="http://www.w3.org/2000/svg">
<path d="M9.11267 14.7656L3.13613 6.57031H0V24.7109H3.28398V12.1562L8.85586 19.8359H9.24496L14.7935 12.3828V24.7109H18.1008V6.57031H14.9647L9.11267 14.7656Z" fill="#001A33"/>
<path d="M24.8322 6.57031H21.5482V24.7031H24.8322V6.57031Z" fill="#001A33"/>
<path d="M36.7386 17.4062H41.9058V17.4766C41.9058 18.3984 41.6724 19.2031 41.2055 19.8828C40.7385 20.5469 40.116 21.0703 39.3456 21.4375C38.5752 21.7969 37.7269 21.9766 36.8086 21.9766C35.6803 21.9766 34.6842 21.7109 33.8126 21.1719C32.941 20.6328 32.2562 19.8984 31.7582 18.9531C31.2757 17.9922 31.0344 16.8828 31.0344 15.6172C31.0344 14.3516 31.2679 13.25 31.7348 12.3047C32.2173 11.3672 32.8865 10.625 33.7348 10.0859C34.6064 9.54688 35.6024 9.28125 36.7308 9.28125C37.8592 9.28125 38.8709 9.57031 39.6724 10.1562C40.4739 10.7422 41.0498 11.5 41.3844 12.4453L44.3027 11.0312C43.9992 10.1719 43.4933 9.38281 42.7852 8.67188C42.077 7.94531 41.2055 7.35937 40.1782 6.92187C39.1666 6.48437 38.0149 6.26563 36.723 6.26563C35.4312 6.26563 34.2484 6.5 33.1511 6.96875C32.0539 7.42188 31.0967 8.07031 30.2796 8.91406C29.478 9.74219 28.8477 10.7344 28.3964 11.8828C27.9606 13.0156 27.7427 14.2578 27.7427 15.6094C27.7427 16.9609 27.9683 18.1953 28.4197 19.3359C28.8866 20.4688 29.5325 21.4609 30.3496 22.3047C31.1667 23.1484 32.1317 23.8047 33.2212 24.2734C34.3184 24.7422 35.5091 24.9766 36.7931 24.9766C37.8514 24.9766 38.8864 24.7969 39.8825 24.4375C40.8786 24.0625 41.7735 23.5234 42.5595 22.8047C43.3611 22.0781 43.9992 21.1719 44.4661 20.1016C44.933 19.0312 45.1665 17.7969 45.1665 16.3984V14.5703H36.7153V17.3672L36.7386 17.4062Z" fill="#001A33"/>
<path d="M58.5514 18.0625C58.5514 18.8125 58.3802 19.4844 58.0456 20.0859C57.7265 20.6875 57.2752 21.1562 56.6915 21.5C56.1312 21.8281 55.4698 21.9844 54.7149 21.9844C53.9601 21.9844 53.3142 21.8203 52.7383 21.5C52.1624 21.1562 51.7033 20.6875 51.3609 20.0859C51.0418 19.4844 50.8784 18.8125 50.8784 18.0625V6.57031H47.5944V18.2344C47.5944 19.5312 47.8979 20.6953 48.5127 21.7188C49.1275 22.7422 49.9602 23.5469 51.0263 24.125C52.108 24.7109 53.3375 25 54.7227 25C56.1079 25 57.3297 24.7109 58.388 24.125C59.4697 23.5391 60.3102 22.7344 60.9249 21.7188C61.5397 20.6953 61.8432 19.5391 61.8432 18.2344V6.57031H58.5592V18.0625H58.5514Z" fill="#001A33"/>
<path d="M65.1116 24.7109H77.0569V21.7891H68.3878V17.0625H76.5744V14.1406H68.3878V9.49219H77.0569V6.57031H65.1116V24.7109Z" fill="#001A33"/>
<path d="M82.7455 21.7891V6.57031H79.4615V24.7109H90.4497V21.7891H82.7455Z" fill="#001A33"/>
<path d="M102.317 10.1016C103.189 9.5625 104.185 9.29688 105.313 9.29688C106.442 9.29688 107.43 9.59375 108.231 10.1953C109.033 10.7812 109.609 11.5234 109.943 12.4375L112.885 11.0469C112.582 10.1875 112.076 9.39844 111.368 8.6875C110.659 7.96094 109.788 7.375 108.761 6.9375C107.749 6.5 106.597 6.28125 105.305 6.28125C104.014 6.28125 102.831 6.51562 101.733 6.98437C100.636 7.4375 99.6791 8.08594 98.862 8.92969C98.0604 9.75781 97.4301 10.75 96.9787 11.8984C96.5429 13.0312 96.325 14.2734 96.325 15.625C96.325 16.9766 96.5507 18.2109 97.0021 19.3516C97.4534 20.4844 98.0838 21.4766 98.8853 22.3203C99.7024 23.1641 100.652 23.8203 101.733 24.2891C102.831 24.7578 104.021 24.9922 105.305 24.9922C106.589 24.9922 107.741 24.7734 108.761 24.3359C109.788 23.8984 110.659 23.3203 111.368 22.6094C112.076 21.8828 112.582 21.0859 112.885 20.2266L109.943 18.8359C109.609 19.7422 109.033 20.5 108.231 21.1016C107.43 21.6875 106.457 21.9766 105.313 21.9766C104.169 21.9766 103.189 21.7109 102.317 21.1719C101.461 20.6328 100.8 19.8984 100.317 18.9531C99.8503 17.9922 99.6168 16.8828 99.6168 15.6172C99.6168 14.3516 99.8503 13.25 100.317 12.3047C100.8 11.3672 101.469 10.625 102.317 10.0859V10.1016Z" fill="#001A33"/>
<path d="M120.286 6.57031L114.083 24.7031H117.632L118.939 20.8047H125.889L127.165 24.7031H130.737L124.535 6.57031H120.286ZM119.873 17.8906L122.41 10.2422L124.947 17.8906H119.873Z" fill="#001A33"/>
<path d="M144.783 15.4844C145.382 14.6094 145.678 13.5469 145.678 12.2969C145.678 11.0469 145.414 10.0469 144.884 9.20312C144.355 8.34375 143.616 7.69531 142.667 7.25781C141.733 6.80469 140.651 6.57812 139.429 6.57812H132.745V24.7109H136.029V18.0156H139.118L142.83 24.7109H146.55L142.425 17.4297C143.421 17.0078 144.207 16.3594 144.791 15.4844H144.783ZM142.028 13.7578C141.787 14.1797 141.445 14.5156 141.017 14.7578C140.581 14.9844 140.067 15.1016 139.476 15.1016H136.021V9.5H139.476C140.075 9.5 140.589 9.625 141.017 9.86719C141.453 10.0938 141.787 10.4219 142.028 10.8438C142.27 11.25 142.386 11.7344 142.386 12.3047C142.386 12.875 142.27 13.3438 142.028 13.7656V13.7578Z" fill="#001A33"/>
<path d="M160.744 15.4844C161.343 14.6094 161.639 13.5469 161.639 12.2969C161.639 11.0469 161.374 10.0469 160.845 9.20312C160.316 8.34375 159.577 7.69531 158.627 7.25781C157.694 6.80469 156.612 6.57812 155.39 6.57812H148.705V24.7109H151.989V18.0156H155.079L158.791 24.7109H162.511L158.386 17.4297C159.382 17.0078 160.176 16.3594 160.752 15.4844H160.744ZM157.989 13.7578C157.748 14.1797 157.413 14.5156 156.978 14.7578C156.542 14.9844 156.028 15.1016 155.437 15.1016H151.989V9.5H155.437C156.028 9.5 156.55 9.625 156.978 9.86719C157.413 10.0938 157.748 10.4219 157.989 10.8438C158.23 11.25 158.355 11.7344 158.355 12.3047C158.355 12.875 158.23 13.3438 157.989 13.7656V13.7578Z" fill="#001A33"/>
<path d="M167.942 6.57031H164.658V24.7031H167.942V6.57031Z" fill="#001A33"/>
<path d="M184.386 0H180.277L178.713 4.21094H181.825L184.386 0Z" fill="#001A33"/>
<path d="M186.969 8.96094C186.113 8.11719 185.117 7.46094 183.973 6.99219C182.829 6.52344 181.592 6.28906 180.253 6.28906C178.915 6.28906 177.678 6.52344 176.534 6.99219C175.39 7.44531 174.394 8.09375 173.538 8.9375C172.682 9.78125 172.028 10.7734 171.561 11.9062C171.094 13.0391 170.861 14.2812 170.861 15.6328C170.861 16.9844 171.094 18.2031 171.561 19.3594C172.043 20.4922 172.713 21.4844 173.561 22.3281C174.417 23.1719 175.413 23.8281 176.557 24.2969C177.701 24.7656 178.93 25 180.253 25C181.576 25 182.821 24.7656 183.942 24.2969C185.086 23.8281 186.082 23.1719 186.938 22.3281C187.794 21.4844 188.456 20.4922 188.938 19.3594C189.421 18.2109 189.662 16.9688 189.662 15.6328C189.662 14.2969 189.421 13.0469 188.938 11.9062C188.471 10.7734 187.81 9.78906 186.961 8.96094H186.969ZM185.911 18.1641C185.623 18.9453 185.195 19.6172 184.635 20.1875C184.09 20.7578 183.444 21.2031 182.705 21.5234C181.965 21.8281 181.156 21.9844 180.269 21.9844C179.382 21.9844 178.596 21.8281 177.857 21.5234C177.117 21.1953 176.464 20.75 175.903 20.1875C175.359 19.6172 174.931 18.9453 174.627 18.1641C174.324 17.3828 174.168 16.5391 174.168 15.6328C174.168 14.7266 174.324 13.8906 174.627 13.125C174.931 12.3437 175.359 11.6719 175.903 11.1016C176.464 10.5156 177.117 10.0703 177.857 9.76562C178.596 9.46094 179.405 9.30469 180.269 9.30469C181.133 9.30469 181.965 9.46094 182.705 9.76562C183.444 10.0703 184.09 10.5234 184.635 11.1016C185.195 11.6719 185.623 12.3437 185.911 13.125C186.214 13.8906 186.37 14.7266 186.37 15.6328C186.37 16.5391 186.214 17.3828 185.911 18.1641Z" fill="#001A33"/>
<path d="M203.716 6.57031V18.2109L195.148 6.57031H192.588V24.7109H195.872V12.8516L204.416 24.7109H207V6.57031H203.716Z" fill="#001A33"/>
</svg>
